<?xml version="1.0" encoding="utf-8"?>
<!-- Generator: Adobe Illustrator 16.0.0, SVG Export Plug-In . SVG Version: 6.00 Build 0)  -->
<!DOCTYPE svg PUBLIC "-//W3C//DTD SVG 1.1//EN" "http://www.w3.org/Graphics/SVG/1.1/DTD/svg11.dtd">
<svg version="1.1" id="Layer_1" xmlns="http://www.w3.org/2000/svg" xmlns:xlink="http://www.w3.org/1999/xlink" x="0px" y="0px"
	 width="250px" height="37px" viewBox="0 0 250 37" enable-background="new 0 0 250 37" xml:space="preserve">
<g>
	<g>
		<path d="M44.939,19.519v0.185c0,0.053-0.009,0.105-0.026,0.158c-0.194,0.369-0.431,0.65-0.712,0.844
			c-0.281,0.193-0.633,0.29-1.055,0.29c-0.281,0-0.488-0.026-0.62-0.079s-0.303-0.148-0.514-0.29
			c-0.316,0.036-0.677,0.065-1.081,0.093c-0.405,0.025-0.809,0.07-1.213,0.131c-0.405,0.063-0.787,0.146-1.147,0.251
			c-0.36,0.105-0.664,0.264-0.91,0.475c-0.158,1.213-0.242,2.422-0.25,3.626c-0.009,1.204-0.031,2.412-0.066,3.625
			c0.141,0.369,0.237,0.777,0.29,1.227c0.053,0.447,0.088,0.856,0.105,1.226c0.123,0.211,0.22,0.426,0.29,0.646
			c0.07,0.22,0.141,0.444,0.211,0.673c0.07,0.229,0.154,0.448,0.25,0.659c0.096,0.211,0.224,0.404,0.382,0.58
			c0.141,0,0.268,0.014,0.382,0.039c0.114,0.027,0.233,0.058,0.356,0.093v0.158c0,0.264,0.079,0.457,0.237,0.58
			s0.333,0.255,0.527,0.396c0.053,0.193,0.079,0.378,0.079,0.554c0,0.299-0.066,0.58-0.198,0.844s-0.347,0.448-0.646,0.554
			c-0.176,0-0.343-0.022-0.501-0.066s-0.326-0.065-0.501-0.065c-0.123,0-0.255,0.018-0.396,0.053
			c-0.088-0.035-0.163-0.084-0.224-0.146c-0.062-0.062-0.128-0.118-0.198-0.171c-0.07-0.053-0.145-0.097-0.224-0.132
			s-0.181-0.044-0.303-0.026c-0.088-0.246-0.229-0.475-0.422-0.686c-0.194-0.211-0.431-0.299-0.712-0.264
			c0.017-0.07,0.026-0.176,0.026-0.316c0-0.246-0.049-0.475-0.145-0.686c-0.097-0.211-0.242-0.378-0.435-0.501
			c-0.088-0.404-0.167-0.849-0.237-1.332c-0.07-0.483-0.22-0.9-0.448-1.252c0-0.51-0.053-0.998-0.158-1.463
			c-0.105-0.467-0.202-0.945-0.29-1.438c0.07-0.281,0.105-0.598,0.105-0.949c0-0.246-0.009-0.488-0.026-0.725
			c-0.018-0.238-0.026-0.471-0.026-0.699c0-0.246,0.017-0.488,0.053-0.725c0.035-0.238,0.123-0.471,0.264-0.699
			c-0.105-0.175-0.176-0.356-0.211-0.541c-0.036-0.184-0.053-0.373-0.053-0.566c0-0.299,0.017-0.589,0.053-0.87l0.105-0.844
			c-0.036-0.017-0.097-0.026-0.185-0.026c-0.176,0-0.326,0.035-0.448,0.105l-0.396,0.185c-0.088-0.017-0.167-0.026-0.237-0.026
			h-0.237c-0.264,0-0.523,0.039-0.778,0.119c-0.255,0.078-0.479,0.215-0.672,0.408c-0.598,0-1.196,0.057-1.793,0.172
			c-0.598,0.114-1.191,0.25-1.78,0.408c-0.589,0.158-1.173,0.33-1.753,0.514c-0.58,0.186-1.16,0.348-1.74,0.488
			c-0.141,0.686-0.247,1.376-0.316,2.07c-0.07,0.694-0.105,1.401-0.105,2.122v0.633c0,0.229,0.017,0.448,0.053,0.659
			c0.017,0.141,0.066,0.268,0.145,0.383c0.079,0.113,0.119,0.241,0.119,0.382c0,0.123-0.026,0.22-0.079,0.29
			c0.123,0.211,0.307,0.396,0.554,0.554c0.264-0.088,0.492-0.132,0.686-0.132c0.316,0,0.615,0.074,0.896,0.225
			c0.281,0.148,0.58,0.25,0.896,0.303c-0.07,0.246-0.176,0.488-0.316,0.725c-0.141,0.238-0.229,0.497-0.264,0.778
			c-0.07,0.035-0.136,0.053-0.198,0.053c-0.062,0-0.119,0.004-0.171,0.013s-0.092,0.04-0.119,0.093s-0.022,0.158,0.013,0.316
			c-0.247,0.123-0.492,0.206-0.738,0.251c-0.247,0.043-0.497,0.074-0.751,0.092c-0.255,0.018-0.51,0.026-0.765,0.026
			c-0.255,0-0.514,0.009-0.778,0.026c0-0.105-0.022-0.189-0.066-0.25c-0.044-0.063-0.102-0.105-0.171-0.133
			c-0.07-0.025-0.145-0.057-0.224-0.092s-0.145-0.079-0.198-0.132c-0.141-0.123-0.25-0.286-0.33-0.487
			c-0.079-0.203-0.158-0.414-0.237-0.633c-0.079-0.221-0.163-0.436-0.25-0.646c-0.088-0.211-0.194-0.404-0.316-0.58
			c-0.036-0.387-0.062-0.765-0.079-1.134c-0.018-0.369-0.026-0.747-0.026-1.134c0-0.721,0.026-1.428,0.079-2.123
			c0.053-0.693,0.096-1.41,0.132-2.148c-0.158-0.158-0.339-0.228-0.541-0.211c-0.202,0.018-0.4,0-0.593-0.053
			c-0.211-0.264-0.387-0.558-0.527-0.883c-0.141-0.326-0.211-0.664-0.211-1.016c0-0.176,0.026-0.359,0.079-0.554
			c0.158-0.053,0.333-0.105,0.527-0.158c0.193-0.053,0.299-0.193,0.316-0.422c0.123,0.07,0.272,0.105,0.448,0.105
			c0.175,0,0.352-0.026,0.527-0.079c0.175-0.053,0.352-0.096,0.527-0.132c0.07-0.28,0.127-0.558,0.171-0.831
			c0.043-0.271,0.048-0.557,0.013-0.856c0.246-0.369,0.409-0.773,0.488-1.213c0.079-0.439,0.136-0.861,0.171-1.266v-0.369
			c0-0.123,0.009-0.246,0.026-0.369c0.035-0.193,0.088-0.413,0.158-0.659c0.07-0.246,0.132-0.475,0.185-0.686
			c0.088-0.333,0.145-0.65,0.171-0.949c0.026-0.299,0.04-0.606,0.04-0.923v-0.105c0-0.088-0.036-0.154-0.105-0.198
			c-0.07-0.043-0.105-0.109-0.105-0.198l0.026-0.053c0.07-0.563,0.154-1.121,0.25-1.674c0.096-0.554,0.233-1.103,0.409-1.648
			c-0.141-0.404-0.211-0.861-0.211-1.371c0-0.668,0.105-1.309,0.316-1.925c-0.105-0.281-0.158-0.554-0.158-0.817
			c0-0.211,0.013-0.422,0.04-0.633s0.03-0.422,0.013-0.633c0.175-0.088,0.32-0.211,0.435-0.369c0.114-0.158,0.25-0.29,0.409-0.396
			c0.527-0.017,0.971,0.158,1.332,0.527c0.36,0.369,0.541,0.817,0.541,1.345c0,0.405-0.115,0.791-0.343,1.16
			c0.07,0.334,0.105,0.721,0.105,1.16c0,0.65-0.044,1.301-0.132,1.951c-0.088,0.65-0.115,1.31-0.079,1.978
			c-0.105,0.247-0.154,0.545-0.145,0.896c0.009,0.352-0.004,0.65-0.04,0.896c-0.036,0.247-0.088,0.497-0.158,0.751
			c-0.07,0.255-0.115,0.505-0.132,0.751c-0.018,0.405-0.031,0.809-0.04,1.213c-0.009,0.405-0.057,0.791-0.145,1.16
			c-0.036,0.141-0.083,0.26-0.145,0.356c-0.062,0.097-0.11,0.207-0.145,0.33c-0.07,0.369-0.092,0.743-0.066,1.121
			c0.026,0.378,0.022,0.76-0.013,1.147c-0.018,0.123-0.049,0.246-0.092,0.369c-0.044,0.123-0.066,0.255-0.066,0.396
			c0,0.07,0.017,0.158,0.053,0.264c1.599-0.141,3.19-0.378,4.772-0.712s3.173-0.623,4.772-0.87c0.123-0.228,0.185-0.465,0.185-0.712
			c0-0.141-0.026-0.281-0.079-0.422c0.175-0.58,0.312-1.164,0.409-1.753c0.096-0.589,0.18-1.173,0.25-1.753
			c0.07-0.58,0.132-1.164,0.185-1.753c0.053-0.589,0.123-1.173,0.211-1.753l0.158-0.896c0.053-0.299,0.123-0.589,0.211-0.87
			c0.035-0.105,0.075-0.211,0.119-0.316c0.043-0.105,0.066-0.202,0.066-0.29c0-0.088-0.049-0.149-0.145-0.185
			c-0.097-0.035-0.145-0.079-0.145-0.132c0-0.035,0.013-0.057,0.04-0.066c0.026-0.009,0.048-0.004,0.066,0.013
			c0.088-0.158,0.141-0.325,0.158-0.501c0.017-0.175,0.03-0.352,0.04-0.527c0.009-0.175,0.03-0.347,0.066-0.514
			c0.035-0.167,0.105-0.32,0.211-0.461c-0.018-0.123-0.053-0.237-0.105-0.343s-0.079-0.228-0.079-0.369
			c-0.018-0.017-0.018-0.035,0-0.053c0.035-0.158,0.057-0.294,0.066-0.409c0.009-0.114,0.013-0.25,0.013-0.409
			c0-0.211,0.096-0.378,0.29-0.501c-0.088-0.299-0.149-0.624-0.185-0.976c-0.036-0.352-0.053-0.694-0.053-1.028
			c0-0.457,0.109-0.839,0.33-1.147c0.22-0.307,0.584-0.461,1.094-0.461c0.264,0,0.514,0.053,0.751,0.158s0.435,0.255,0.593,0.448
			c0.088,0.405,0.132,0.782,0.132,1.134c0,0.247-0.013,0.479-0.04,0.699c-0.026,0.22-0.04,0.453-0.04,0.699
			c0,0.194,0.017,0.374,0.053,0.541c0.035,0.167,0.07,0.339,0.105,0.514c-0.158,0.247-0.273,0.519-0.343,0.817
			c-0.07,0.299-0.119,0.606-0.145,0.923s-0.044,0.637-0.053,0.962c-0.009,0.326-0.022,0.62-0.04,0.883
			c-0.053,0.58-0.136,1.151-0.25,1.714c-0.115,0.563-0.242,1.125-0.382,1.688c0.053,0.194,0.079,0.369,0.079,0.527
			c0,0.316-0.044,0.629-0.132,0.936c-0.088,0.308-0.115,0.611-0.079,0.91c-0.123,0.316-0.202,0.637-0.237,0.962
			c-0.036,0.326-0.062,0.664-0.079,1.015l-0.053,1.028c-0.018,0.334-0.079,0.659-0.185,0.976c0.035,0.088,0.101,0.136,0.198,0.145
			c0.096,0.009,0.127,0.083,0.092,0.224c0.404-0.123,0.834-0.18,1.292-0.171c0.457,0.009,0.887,0.013,1.292,0.013
			c0.264,0,0.527-0.004,0.791-0.013c0.264-0.009,0.527-0.04,0.791-0.092c0.264-0.07,0.531-0.154,0.804-0.25
			c0.272-0.096,0.541-0.145,0.804-0.145c0.369,0,0.65,0.132,0.844,0.396c0.035,0.194,0.062,0.387,0.079,0.58
			C44.93,19.133,44.939,19.325,44.939,19.519z"/>
		<path d="M61.445,13.56c-0.105,0.158-0.167,0.334-0.185,0.527c-0.018,0.194-0.026,0.369-0.026,0.527
			c0,0.211,0.004,0.418,0.013,0.62c0.009,0.202,0.013,0.4,0.013,0.593v0.396c-0.036,0.123-0.088,0.247-0.158,0.369
			c-0.07,0.123-0.123,0.247-0.158,0.369c-0.247,0.65-0.369,1.301-0.369,1.951v0.053c-0.088,0.211-0.171,0.404-0.25,0.58
			s-0.154,0.348-0.224,0.514c-0.07,0.168-0.123,0.344-0.158,0.527c-0.036,0.186-0.044,0.4-0.026,0.646
			c-0.247,0.615-0.571,1.174-0.976,1.674c-0.405,0.502-0.8,1.016-1.187,1.543c-0.369,0.142-0.708,0.325-1.015,0.554
			c-0.308,0.229-0.603,0.483-0.883,0.765c-0.545,0.176-1.081,0.378-1.608,0.606s-1.002,0.536-1.424,0.923
			c-0.334,0.035-0.668,0.088-1.002,0.158c-0.334,0.07-0.659,0.176-0.976,0.316h-0.316c-0.158,0-0.273-0.035-0.343-0.105
			c-0.229,0.123-0.466,0.207-0.712,0.25c-0.247,0.045-0.492,0.066-0.738,0.066c-0.316,0-0.629-0.021-0.936-0.066
			c-0.308-0.043-0.62-0.092-0.936-0.145c-0.176-0.246-0.422-0.436-0.738-0.566c-0.316-0.133-0.598-0.26-0.844-0.383
			c-0.51-0.703-0.879-1.385-1.107-2.044c-0.228-0.659-0.465-1.401-0.712-2.228c0.036-0.246,0.097-0.488,0.185-0.725
			c0.088-0.238,0.123-0.497,0.105-0.778c0.316-0.913,0.734-1.744,1.252-2.492c0.518-0.747,1.111-1.463,1.78-2.149
			c0-0.105,0.022-0.193,0.066-0.264c0.043-0.07,0.048-0.175,0.013-0.316c0.017,0.018,0.053,0.026,0.105,0.026
			c0.141,0,0.228-0.04,0.264-0.119c0.035-0.079,0.043-0.171,0.026-0.277c0.633-0.404,1.208-0.87,1.727-1.397
			c0.518-0.527,1.111-0.966,1.78-1.318c0.053-0.158,0.141-0.29,0.264-0.396c0.123-0.105,0.22-0.228,0.29-0.369
			c0.563-0.158,1.072-0.396,1.529-0.712c0.457-0.316,0.94-0.597,1.45-0.844c0.281-0.158,0.549-0.268,0.804-0.33
			c0.254-0.062,0.531-0.127,0.831-0.198c0.105-0.035,0.202-0.062,0.29-0.079c0.088-0.017,0.185-0.026,0.29-0.026
			c0.316,0,0.624,0.057,0.923,0.171c0.299,0.115,0.606,0.171,0.923,0.171c0.088,0,0.162-0.004,0.224-0.013
			c0.062-0.009,0.127-0.022,0.198-0.04c0.299,0.369,0.676,0.65,1.134,0.844c0.105,0.264,0.233,0.492,0.382,0.686
			c0.149,0.194,0.303,0.382,0.461,0.567s0.303,0.387,0.435,0.606C61.327,13.002,61.41,13.261,61.445,13.56z M58.809,14.931
			c0-0.088-0.009-0.167-0.026-0.237c-0.176-0.053-0.343-0.123-0.501-0.211c-0.158-0.088-0.334-0.132-0.527-0.132
			c-0.123,0-0.247,0.026-0.369,0.079c-0.018-0.123-0.066-0.211-0.145-0.264s-0.167-0.101-0.264-0.145
			c-0.097-0.043-0.194-0.079-0.29-0.105c-0.097-0.026-0.181-0.075-0.25-0.145c-0.053-0.141-0.11-0.286-0.171-0.435
			c-0.062-0.149-0.171-0.259-0.33-0.33c-0.158,0.158-0.343,0.286-0.554,0.382c-0.211,0.097-0.426,0.189-0.646,0.277
			c-0.22,0.088-0.431,0.194-0.633,0.316c-0.202,0.123-0.374,0.273-0.514,0.448h-0.475c-0.105,0.194-0.255,0.339-0.448,0.435
			c-0.194,0.097-0.36,0.233-0.501,0.409c-0.281,0.141-0.541,0.313-0.778,0.514c-0.237,0.202-0.471,0.413-0.699,0.633
			c-0.229,0.22-0.453,0.444-0.672,0.672c-0.22,0.229-0.453,0.439-0.699,0.633c-0.229,0.492-0.479,0.919-0.751,1.278
			c-0.273,0.361-0.527,0.726-0.765,1.095s-0.439,0.769-0.606,1.2c-0.167,0.431-0.25,0.962-0.25,1.595v0.264
			c0,0.089,0.009,0.176,0.026,0.264c0.228,0.247,0.417,0.511,0.567,0.791c0.149,0.281,0.399,0.484,0.751,0.606
			c0.352,0.141,0.725,0.202,1.121,0.185s0.778,0.026,1.147,0.132c0.844-0.158,1.657-0.417,2.439-0.778
			c0.782-0.359,1.525-0.794,2.228-1.305c0.105-0.088,0.228-0.181,0.369-0.276c0.141-0.097,0.254-0.198,0.343-0.304
			c0.088-0.088,0.162-0.185,0.224-0.29c0.062-0.105,0.127-0.201,0.198-0.29c0.141-0.228,0.299-0.457,0.475-0.686
			c0.175-0.228,0.36-0.438,0.554-0.633c0.088-0.386,0.202-0.761,0.343-1.12c0.141-0.36,0.281-0.716,0.422-1.068
			c0.141-0.352,0.259-0.712,0.356-1.081c0.096-0.369,0.145-0.755,0.145-1.16c0-0.088-0.004-0.185-0.013-0.29
			c-0.009-0.105-0.022-0.202-0.04-0.29C58.738,15.37,58.809,15.159,58.809,14.931z"/>
		<path d="M85.967,11.872c-0.07,0.229-0.185,0.439-0.343,0.633l-0.448,0.554c-0.141,0.176-0.26,0.365-0.356,0.567
			c-0.097,0.202-0.128,0.435-0.092,0.699c-0.036,0-0.079-0.004-0.132-0.013c-0.053-0.009-0.097-0.013-0.132-0.013
			c-0.281,0-0.497,0.066-0.646,0.198c-0.149,0.132-0.347,0.242-0.593,0.33c-0.036-0.105-0.079-0.207-0.132-0.303
			c-0.053-0.096-0.132-0.162-0.237-0.198c-0.422,0.088-0.844,0.154-1.266,0.198c-0.422,0.044-0.844,0.102-1.266,0.171
			c-0.194,0.036-0.387,0.083-0.58,0.145c-0.194,0.062-0.396,0.119-0.606,0.171c-0.105,0.036-0.22,0.049-0.343,0.04
			c-0.123-0.009-0.247-0.004-0.369,0.013c-0.422,0.018-0.879,0.049-1.371,0.092c-0.492,0.044-0.932,0.181-1.318,0.409
			c-0.176-0.035-0.36-0.062-0.554-0.079c-0.194-0.017-0.387-0.026-0.58-0.026c-0.422,0-0.883,0.04-1.384,0.119
			s-0.945,0.233-1.332,0.461c-0.088-0.035-0.181-0.062-0.277-0.079c-0.097-0.017-0.207-0.026-0.33-0.026
			c-0.036,0-0.062,0.004-0.079,0.013c-0.018,0.009-0.044,0.013-0.079,0.013c-0.018,0.158,0.004,0.313,0.066,0.461
			c0.062,0.149,0.171,0.268,0.33,0.356c-0.07,0.194-0.105,0.405-0.105,0.633c0,0.299,0.022,0.598,0.066,0.896
			c0.043,0.299,0.066,0.598,0.066,0.896c0,0.334-0.044,0.598-0.132,0.791c0.175,0.527,0.264,1.091,0.264,1.688
			c0,0.211-0.013,0.418-0.04,0.62c-0.026,0.201-0.04,0.418-0.04,0.646c0,0.194,0.07,0.347,0.211,0.462
			c0.141,0.114,0.211,0.268,0.211,0.461c0,0.07-0.018,0.141-0.053,0.211c0.246-0.053,0.483-0.127,0.712-0.225
			c0.228-0.096,0.465-0.145,0.712-0.145c0.141,0,0.277,0.026,0.409,0.079s0.25,0.123,0.356,0.211
			c-0.018,0.089-0.031,0.185-0.04,0.29c-0.009,0.105-0.013,0.211-0.013,0.316c0,0.194,0.004,0.374,0.013,0.541
			c0.009,0.167,0.022,0.347,0.04,0.54c-0.141,0.246-0.303,0.466-0.488,0.659s-0.313,0.439-0.382,0.738
			c-0.264,0-0.497,0.058-0.699,0.172c-0.202,0.114-0.392,0.236-0.567,0.369c-0.176,0.131-0.352,0.255-0.527,0.369
			c-0.176,0.114-0.369,0.171-0.58,0.171c-0.264,0-0.448-0.04-0.554-0.118c-0.105-0.08-0.185-0.163-0.237-0.251
			s-0.102-0.167-0.145-0.237c-0.044-0.07-0.136-0.097-0.277-0.079c-0.036-0.229-0.105-0.443-0.211-0.646s-0.215-0.4-0.33-0.594
			c-0.115-0.193-0.229-0.391-0.343-0.594c-0.115-0.201-0.198-0.408-0.25-0.619c-0.105-0.457-0.149-0.932-0.132-1.424
			c0.017-0.492-0.062-0.967-0.237-1.424c0.035-0.246,0.062-0.496,0.079-0.752c0.017-0.254,0.026-0.504,0.026-0.751
			c0-0.491-0.013-0.979-0.04-1.464c-0.026-0.483-0.049-0.979-0.066-1.489c-0.123-0.158-0.198-0.338-0.224-0.541
			c-0.026-0.202-0.049-0.399-0.066-0.593c-0.053-0.053-0.11-0.105-0.171-0.158c-0.062-0.053-0.102-0.123-0.119-0.211
			c-0.141-0.035-0.247-0.053-0.316-0.053c-0.247,0-0.453,0.057-0.62,0.171c-0.167,0.115-0.321,0.171-0.461,0.171
			c-0.141,0-0.273-0.017-0.396-0.053c-0.123-0.035-0.247-0.053-0.369-0.053c-0.105,0-0.163,0.022-0.171,0.066
			c-0.009,0.044-0.049,0.083-0.119,0.119c-0.053,0.036-0.176,0.07-0.369,0.105c-0.194,0.036-0.409,0.066-0.646,0.092
			s-0.466,0.049-0.686,0.066c-0.22,0.018-0.365,0.026-0.435,0.026c-0.281,0-0.497-0.057-0.646-0.171
			c-0.149-0.114-0.33-0.241-0.541-0.382c0.036-0.105,0.053-0.175,0.053-0.211c0-0.175-0.053-0.32-0.158-0.435
			c-0.105-0.114-0.158-0.215-0.158-0.303c0-0.193,0.075-0.343,0.224-0.448c0.149-0.105,0.233-0.272,0.25-0.501
			c0.405-0.175,0.817-0.307,1.239-0.396c0.422-0.088,0.853-0.158,1.292-0.211c0.439-0.053,0.874-0.114,1.305-0.185
			c0.431-0.07,0.857-0.185,1.279-0.343c0.123,0.018,0.241,0.031,0.356,0.04c0.114,0.009,0.233,0.013,0.356,0.013
			c0.527,0,1.05-0.057,1.569-0.171c0.518-0.114,1.05-0.171,1.595-0.171c0.141,0,0.281,0.009,0.422,0.026
			c0.141,0.018,0.281,0.044,0.422,0.079c0.703-0.105,1.401-0.22,2.096-0.343c0.694-0.123,1.411-0.228,2.149-0.316
			c0.352-0.035,0.699-0.066,1.042-0.092s0.689-0.066,1.042-0.119c0.123-0.017,0.215-0.048,0.277-0.092
			c0.062-0.043,0.092-0.136,0.092-0.277c0.158,0.07,0.333,0.105,0.527,0.105c0.299,0,0.589-0.053,0.87-0.158
			c0.281-0.105,0.571-0.158,0.87-0.158c0.07,0,0.132,0.004,0.185,0.013c0.053,0.009,0.105,0.013,0.158,0.013
			c0.123,0,0.188-0.057,0.198-0.171c0.009-0.114,0.092-0.188,0.25-0.224c0.123-0.035,0.299-0.062,0.527-0.079
			c0.228-0.017,0.47-0.04,0.725-0.066c0.254-0.026,0.492-0.062,0.712-0.105c0.22-0.043,0.382-0.109,0.488-0.198l0.185-0.29
			c0.316,0.018,0.549,0.154,0.699,0.409c0.149,0.255,0.233,0.532,0.25,0.831c0.07,0.07,0.171,0.102,0.303,0.092
			c0.132-0.009,0.25-0.013,0.356-0.013H85.967z"/>
		<path d="M98.966,12.057v0.105c-0.123,0.036-0.185,0.123-0.185,0.264c-0.194,0.088-0.396,0.154-0.606,0.198
			c-0.211,0.044-0.413,0.11-0.606,0.198c-0.194-0.017-0.392-0.03-0.593-0.04c-0.202-0.009-0.4-0.013-0.593-0.013
			c-0.527,0-1.055,0.018-1.582,0.053c-0.527,0.036-1.055,0.036-1.582,0c-0.247,0.141-0.514,0.25-0.804,0.33
			s-0.567,0.119-0.831,0.119c-0.211,0-0.396-0.026-0.554-0.079c-0.422,0.211-0.883,0.387-1.384,0.527
			c-0.501,0.141-1.006,0.277-1.516,0.409c-0.51,0.132-0.998,0.281-1.463,0.448c-0.466,0.167-0.875,0.4-1.226,0.699
			c-0.036,0.247-0.062,0.488-0.079,0.725c-0.018,0.237-0.026,0.471-0.026,0.699c0,0.247,0.013,0.475,0.04,0.686
			s0.083,0.422,0.171,0.633c0.088,0.036,0.188,0.062,0.303,0.079c0.114,0.018,0.215,0.026,0.303,0.026
			c0.088,0,0.175-0.013,0.264-0.04c0.088-0.026,0.149-0.083,0.185-0.171c0.264-0.035,0.527-0.048,0.791-0.04
			c0.264,0.009,0.527,0.013,0.791,0.013s0.523-0.009,0.778-0.026c0.254-0.017,0.505-0.062,0.751-0.132
			c0.281-0.07,0.558-0.114,0.831-0.132c0.272-0.017,0.541-0.035,0.804-0.053c0.264-0.017,0.536-0.048,0.817-0.092
			c0.281-0.043,0.571-0.136,0.87-0.277c0.228,0.088,0.461,0.132,0.699,0.132s0.47,0.018,0.699,0.053
			c0.123,0.088,0.224,0.185,0.303,0.29s0.119,0.229,0.119,0.369c0,0.247-0.088,0.492-0.264,0.738
			c-0.176,0.246-0.316,0.475-0.422,0.686h-0.29c-0.422,0-0.831,0.057-1.226,0.172c-0.396,0.114-0.791,0.246-1.187,0.395
			c-0.396,0.15-0.791,0.281-1.187,0.396c-0.396,0.114-0.804,0.171-1.226,0.171c-0.07,0-0.11,0.04-0.119,0.118
			c-0.009,0.08-0.031,0.137-0.066,0.172c-0.088-0.018-0.22-0.026-0.396-0.026c-0.405,0-0.791,0.044-1.16,0.132
			s-0.748,0.132-1.134,0.132c-0.105,0-0.211-0.004-0.316-0.013c-0.105-0.01-0.211-0.022-0.316-0.04
			c-0.088,0.142-0.202,0.233-0.343,0.276c-0.141,0.045-0.273,0.119-0.396,0.225c-0.053,0.158-0.083,0.352-0.092,0.58
			c-0.009,0.229-0.018,0.461-0.026,0.699c-0.009,0.236-0.031,0.461-0.066,0.672c-0.036,0.211-0.105,0.379-0.211,0.501
			c0.017,0.089,0.088,0.118,0.211,0.093c0.123-0.027,0.185,0.03,0.185,0.171c0,0.158-0.018,0.326-0.053,0.501
			c-0.036,0.176-0.053,0.352-0.053,0.527c0,0.334,0.04,0.699,0.119,1.094c0.079,0.396,0.202,0.761,0.369,1.095
			c0.167,0.334,0.391,0.611,0.672,0.831c0.281,0.22,0.633,0.329,1.055,0.329c0.281,0,0.544-0.053,0.791-0.158
			c0.246-0.105,0.448-0.281,0.606-0.527l0.132-0.026c0.07,0,0.136,0.009,0.198,0.026c0.062,0.018,0.127,0.026,0.198,0.026
			c0.105,0,0.241-0.066,0.409-0.197c0.167-0.133,0.352-0.286,0.554-0.462c0.202-0.176,0.409-0.347,0.62-0.515
			c0.211-0.166,0.413-0.285,0.606-0.355c0.123-0.246,0.241-0.492,0.356-0.738c0.114-0.246,0.286-0.439,0.514-0.58V24.37
			c0.175-0.193,0.365-0.369,0.567-0.527c0.202-0.158,0.356-0.36,0.461-0.606c0.088,0.035,0.171,0.063,0.25,0.079
			c0.079,0.018,0.162,0.026,0.25,0.026c0.088,0,0.18-0.009,0.277-0.026c0.096-0.017,0.188-0.044,0.277-0.079
			c0.141,0.193,0.25,0.408,0.33,0.646c0.079,0.236,0.18,0.461,0.303,0.672c-0.158,0.316-0.343,0.694-0.554,1.134
			s-0.439,0.879-0.686,1.318c-0.247,0.439-0.505,0.856-0.778,1.253c-0.273,0.395-0.541,0.698-0.804,0.909
			c-0.053,0.053-0.167,0.114-0.343,0.185c-0.194,0.141-0.369,0.277-0.527,0.408c-0.158,0.133-0.308,0.286-0.448,0.462
			c-0.51,0.158-0.998,0.369-1.463,0.633c-0.466,0.264-0.927,0.519-1.384,0.765c-0.211-0.053-0.439-0.079-0.686-0.079
			c-0.211,0-0.422,0.013-0.633,0.04c-0.211,0.025-0.439,0.039-0.686,0.039c-0.07-0.088-0.171-0.145-0.303-0.172
			c-0.132-0.025-0.181-0.118-0.145-0.276c-0.598-0.035-1.081-0.198-1.45-0.487c-0.369-0.291-0.682-0.646-0.936-1.068
			c-0.255-0.422-0.461-0.879-0.62-1.371s-0.325-0.967-0.501-1.424v-0.079c0-0.088,0.036-0.141,0.105-0.158
			c0.07-0.018,0.105-0.07,0.105-0.158c0-0.035-0.009-0.062-0.026-0.079c-0.053-0.193-0.096-0.36-0.132-0.501
			c-0.035-0.141-0.053-0.308-0.053-0.501c0-0.281,0.018-0.558,0.053-0.831c0.036-0.272,0.053-0.549,0.053-0.83
			c0-0.28-0.035-0.527-0.105-0.738c0.07-0.088,0.128-0.206,0.171-0.356c0.044-0.148,0.075-0.303,0.092-0.461s0.03-0.316,0.04-0.475
			c0.009-0.158,0.03-0.299,0.066-0.422c-0.07-0.193-0.132-0.365-0.185-0.514c-0.053-0.149-0.079-0.33-0.079-0.541v-0.185
			c0.175-0.299,0.325-0.606,0.448-0.923c0.123-0.316,0.254-0.642,0.396-0.976v-0.079c0-0.51-0.018-1.019-0.053-1.529
			c-0.036-0.51-0.053-1.019-0.053-1.529v-0.501c0-0.175,0.009-0.343,0.026-0.501c0.141-0.07,0.246-0.167,0.316-0.29
			c0.07-0.123,0.175-0.22,0.316-0.29h0.87l0.158-0.264c0.053-0.088,0.088-0.185,0.105-0.29c0.193-0.053,0.382-0.127,0.567-0.224
			c0.185-0.096,0.356-0.198,0.514-0.303c0.246-0.141,0.47-0.268,0.672-0.382c0.202-0.114,0.404-0.211,0.606-0.29
			c0.202-0.079,0.417-0.145,0.646-0.198c0.228-0.053,0.492-0.096,0.791-0.132c0.141,0,0.233-0.026,0.277-0.079
			c0.043-0.053,0.109-0.114,0.198-0.185c0.211,0.036,0.422,0.066,0.633,0.092s0.422,0.04,0.633,0.04
			c0.422,0,0.817-0.079,1.187-0.237c0.527,0,1.05-0.009,1.569-0.026c0.518-0.017,1.042-0.026,1.569-0.026
			c0.457,0,0.914,0.018,1.371,0.053c0.457,0.036,0.905,0.097,1.345,0.185c0.158-0.053,0.333-0.079,0.527-0.079
			c0.211,0,0.426,0.022,0.646,0.066c0.22,0.044,0.435,0.049,0.646,0.013c0.017,0.194,0.066,0.356,0.145,0.488
			S98.966,11.881,98.966,12.057z"/>
		<path d="M112.07,22.05c0,0.194-0.07,0.339-0.211,0.435c-0.141,0.098-0.211,0.225-0.211,0.383c0,0.07,0.035,0.158,0.105,0.264
			c-0.247,0-0.413,0.079-0.501,0.237c-0.088,0.158-0.176,0.334-0.264,0.527h-0.343c-0.088,0-0.158,0.018-0.211,0.053
			c-0.053,0.036-0.102,0.083-0.145,0.146c-0.044,0.062-0.102,0.154-0.171,0.276c-0.334,0.07-0.655,0.181-0.962,0.33
			c-0.308,0.149-0.606,0.308-0.896,0.474c-0.29,0.168-0.584,0.335-0.883,0.502c-0.299,0.167-0.606,0.303-0.923,0.408
			c-0.158,0.264-0.387,0.475-0.686,0.633h-0.079c-0.088,0.018-0.163,0.005-0.224-0.039c-0.062-0.044-0.136-0.066-0.224-0.066
			c-0.053,0-0.088,0.009-0.105,0.026c-0.527,0.352-1.117,0.527-1.767,0.527c-0.176,0-0.343-0.013-0.501-0.04
			c-0.158-0.025-0.326-0.039-0.501-0.039c-0.053,0-0.088,0.018-0.105,0.053l-0.053,0.105c-0.018,0.035-0.04,0.07-0.066,0.105
			s-0.092,0.053-0.198,0.053c-0.194,0-0.387-0.026-0.58-0.079c-0.194-0.053-0.396-0.062-0.606-0.026
			c-0.405-0.229-0.721-0.448-0.949-0.659c-0.229-0.211-0.439-0.527-0.633-0.949c-0.088-0.193-0.207-0.378-0.356-0.554
			c-0.149-0.176-0.26-0.369-0.33-0.58c-0.018-0.069-0.044-0.198-0.079-0.383c-0.036-0.184-0.07-0.382-0.105-0.593
			c-0.036-0.211-0.066-0.413-0.092-0.606s-0.04-0.325-0.04-0.396c0-0.211,0.013-0.417,0.04-0.62
			c0.026-0.201,0.057-0.408,0.092-0.619c0.105-0.668,0.18-1.34,0.224-2.018c0.043-0.676,0.188-1.331,0.435-1.964
			c-0.036-0.193-0.053-0.378-0.053-0.554v-0.58c0-0.333-0.044-0.615-0.132-0.844c0.141-0.228,0.211-0.483,0.211-0.765
			c0-0.316-0.132-0.501-0.396-0.554v-0.079c0-0.369-0.123-0.659-0.369-0.87c0-0.615,0.154-1.077,0.461-1.384
			c0.307-0.307,0.716-0.576,1.226-0.804c0.07-0.105,0.096-0.193,0.079-0.264c0.123,0.036,0.237,0.07,0.343,0.105
			c0.105,0.036,0.211,0.053,0.316,0.053c0.175,0,0.333-0.026,0.475-0.079c0.053,0.211,0.188,0.339,0.409,0.382
			c0.22,0.044,0.399,0.102,0.541,0.171v0.343c0,0.545,0.132,1.064,0.396,1.556c-0.07,0.141-0.115,0.29-0.132,0.448
			c-0.018,0.158-0.026,0.308-0.026,0.448c0,0.211,0.009,0.422,0.026,0.633c0.017,0.211,0.026,0.413,0.026,0.606
			c0,0.211-0.022,0.422-0.066,0.633c-0.044,0.211-0.145,0.396-0.303,0.554c-0.018,0.229-0.031,0.488-0.04,0.778
			c-0.009,0.29-0.026,0.584-0.053,0.883c-0.026,0.299-0.075,0.589-0.145,0.87c-0.07,0.281-0.176,0.511-0.316,0.686
			c-0.018,0.264-0.031,0.532-0.04,0.804c-0.009,0.273-0.013,0.532-0.013,0.778c0,0.387,0.022,0.844,0.066,1.371
			c0.043,0.527,0.162,0.967,0.356,1.318c0.088,0.142,0.259,0.247,0.514,0.316c0.254,0.07,0.461,0.105,0.62,0.105
			c0.193,0,0.391-0.03,0.593-0.093c0.202-0.061,0.347-0.171,0.435-0.329c0.105,0.018,0.175,0.07,0.211,0.158
			c0.035,0.089,0.096,0.158,0.185,0.211c1.002-0.422,2.004-0.826,3.006-1.213c1.002-0.386,1.986-0.835,2.953-1.345
			c0.141,0.07,0.29,0.105,0.448,0.105c0.175,0,0.352-0.018,0.527-0.053c0.175-0.035,0.352-0.053,0.527-0.053h0.185
			C112.053,21.918,112.07,21.997,112.07,22.05z"/>
	</g>
	<g>
		<path d="M154.442,29.907c-0.035,0.352-0.158,0.628-0.369,0.831c-0.211,0.201-0.483,0.303-0.817,0.303
			c-0.176,0-0.343-0.026-0.501-0.079c-0.334,0.264-0.729,0.466-1.187,0.606s-0.888,0.281-1.292,0.422
			c-0.492-0.018-0.976-0.062-1.45-0.132s-0.967-0.088-1.477-0.053c-0.176-0.123-0.36-0.202-0.554-0.237s-0.392-0.058-0.593-0.066
			c-0.203-0.009-0.396-0.039-0.58-0.092c-0.186-0.053-0.365-0.176-0.541-0.369h-1.318c-0.123,0-0.303-0.058-0.541-0.172
			c-0.236-0.114-0.5-0.232-0.791-0.355c-0.289-0.123-0.598-0.237-0.922-0.343c-0.326-0.105-0.629-0.158-0.91-0.158h-0.158
			c-0.193-0.158-0.418-0.276-0.672-0.356c-0.256-0.078-0.515-0.149-0.778-0.211s-0.519-0.127-0.765-0.197s-0.457-0.167-0.633-0.29
			s-0.378-0.251-0.606-0.382c-0.229-0.133-0.466-0.189-0.712-0.172c-0.334-0.193-0.682-0.36-1.041-0.501
			c-0.361-0.141-0.726-0.272-1.095-0.396l-1.081-0.396c-0.352-0.141-0.703-0.308-1.055-0.501c-0.053,0.018-0.114,0.018-0.185,0
			s-0.132-0.026-0.185-0.026c-0.105,0-0.167,0.035-0.185,0.105c-0.123-0.123-0.26-0.229-0.409-0.316s-0.294-0.193-0.435-0.316
			c-0.07,0.018-0.136,0.031-0.198,0.04c-0.062,0.009-0.136,0.013-0.224,0.013c-0.158,0-0.313-0.018-0.462-0.053
			c-0.148-0.035-0.294-0.079-0.435-0.132c-0.158,0.352-0.264,0.747-0.316,1.187s-0.093,0.893-0.118,1.358
			c-0.027,0.465-0.058,0.931-0.093,1.396c-0.036,0.466-0.114,0.893-0.237,1.279c0.035,0.141,0.053,0.281,0.053,0.422v0.448
			c0,0.299,0.043,0.536,0.132,0.712c-0.036,0.158-0.065,0.308-0.093,0.448c-0.025,0.141-0.057,0.281-0.092,0.422
			c0.018,0.193,0.03,0.373,0.039,0.54c0.01,0.167,0.014,0.348,0.014,0.541v0.448c0,0.158-0.018,0.316-0.053,0.475
			c-0.176,0.105-0.352,0.206-0.527,0.304c-0.176,0.096-0.352,0.215-0.527,0.355c-0.123-0.229-0.334-0.36-0.633-0.396
			c-0.07,0.088-0.119,0.206-0.145,0.356c-0.027,0.148-0.11,0.224-0.251,0.224c-0.247-0.193-0.448-0.352-0.606-0.475
			s-0.334-0.308-0.527-0.554c-0.018-0.035-0.026-0.079-0.026-0.132c0-0.088,0.017-0.167,0.053-0.237
			c0.035-0.07,0.053-0.141,0.053-0.211c0-0.211-0.026-0.396-0.079-0.554c-0.036-0.229-0.062-0.453-0.079-0.673
			c-0.018-0.22-0.026-0.435-0.026-0.646c0-0.299,0.022-0.589,0.066-0.87c0.043-0.281,0.127-0.571,0.25-0.87
			c0.193-0.51,0.33-1.046,0.408-1.608c0.08-0.563,0.137-1.129,0.172-1.701c0.035-0.57,0.057-1.146,0.066-1.727
			c0.008-0.58,0.039-1.134,0.092-1.661c-0.123-0.28-0.268-0.505-0.436-0.673c-0.167-0.166-0.25-0.435-0.25-0.804
			c0-0.333,0.105-0.593,0.316-0.778c0.211-0.184,0.396-0.408,0.554-0.672c-0.036-0.105-0.009-0.176,0.079-0.211l0.316-2.769
			c0.018-0.193,0.049-0.404,0.092-0.633c0.044-0.228,0.075-0.439,0.093-0.633c0.035-0.404,0.053-0.8,0.053-1.187
			c0-0.386,0.017-0.773,0.053-1.16c0.088-0.861,0.171-1.714,0.251-2.558c0.078-0.844,0.118-1.688,0.118-2.531
			c0-0.404-0.013-0.808-0.04-1.213c-0.025-0.404-0.083-0.808-0.171-1.213c-0.3,0.088-0.629,0.181-0.989,0.277
			c-0.359,0.097-0.663,0.26-0.909,0.488h-0.211c-0.458,0-0.883,0.088-1.279,0.264c-0.396,0.176-0.795,0.343-1.2,0.501
			c-0.175,0.088-0.352,0.145-0.527,0.171c-0.175,0.026-0.36,0.066-0.554,0.119c-0.088,0.018-0.185,0.07-0.29,0.158
			c-0.105,0.088-0.202,0.149-0.29,0.185l-0.448,0.105c-0.123,0.036-0.175,0.115-0.158,0.237c0.018,0.123-0.026,0.202-0.132,0.237
			c-0.088,0.088-0.211,0.128-0.369,0.119c-0.158-0.009-0.281-0.013-0.369-0.013h-0.105c-0.439,0.316-0.866,0.584-1.279,0.804
			c-0.413,0.22-0.9,0.365-1.463,0.435l-0.58,0.369c-0.193,0.123-0.413,0.185-0.659,0.185c-0.193,0-0.352-0.035-0.475-0.105
			c-0.141-0.211-0.25-0.448-0.33-0.712s-0.215-0.492-0.409-0.686c0.088-0.088,0.145-0.207,0.171-0.356
			c0.026-0.149,0.057-0.286,0.092-0.409c0.527-0.228,1.059-0.448,1.595-0.659c0.537-0.211,1.051-0.465,1.542-0.765
			c0.053,0.018,0.132,0.026,0.237,0.026c0.176,0,0.334-0.026,0.475-0.079c0.141-0.053,0.281-0.114,0.422-0.185
			c0.141-0.07,0.281-0.132,0.422-0.185c0.141-0.053,0.308-0.07,0.501-0.053c0.598-0.333,1.23-0.606,1.898-0.817
			c0.668-0.211,1.301-0.501,1.898-0.87c0.088,0,0.162,0.018,0.224,0.053c0.062,0.036,0.127,0.053,0.198,0.053
			c0.07,0,0.114-0.009,0.132-0.026c0.105-0.141,0.246-0.241,0.422-0.303c0.175-0.062,0.356-0.114,0.541-0.158
			c0.185-0.043,0.36-0.105,0.527-0.185c0.168-0.079,0.277-0.207,0.33-0.382c0.088,0.07,0.22,0.105,0.396,0.105
			c0.299,0,0.575-0.062,0.831-0.185c0.254-0.123,0.531-0.185,0.83-0.185c0.07,0,0.136,0.013,0.197,0.04
			c0.063,0.026,0.128,0.04,0.198,0.04c0.141,0,0.215-0.043,0.224-0.132c0.01-0.088,0.057-0.167,0.146-0.237
			c1.071-0.193,2.14-0.369,3.204-0.527c1.063-0.158,2.14-0.237,3.229-0.237c0.158-0.105,0.334-0.158,0.527-0.158
			s0.369,0.053,0.527,0.158c0.299-0.035,0.598-0.062,0.896-0.079c0.299-0.017,0.598-0.026,0.896-0.026
			c0.686,0,1.389,0.044,2.109,0.132c0.721,0.088,1.437,0.224,2.149,0.409c0.711,0.185,1.393,0.431,2.043,0.738
			c0.65,0.308,1.257,0.672,1.819,1.094c0.053,0.158,0.123,0.316,0.211,0.475s0.202,0.281,0.343,0.369
			c0,0.036-0.005,0.062-0.014,0.079c-0.009,0.018-0.013,0.044-0.013,0.079c0,0.194,0.057,0.378,0.171,0.554
			c0.114,0.176,0.172,0.387,0.172,0.633c0,0.247-0.039,0.492-0.119,0.738c-0.078,0.247-0.109,0.492-0.092,0.738
			c-0.193,0.281-0.355,0.537-0.488,0.765c-0.131,0.229-0.215,0.519-0.25,0.87c-0.316,0.316-0.598,0.664-0.844,1.042
			c-0.246,0.378-0.497,0.748-0.752,1.107c-0.255,0.36-0.54,0.69-0.856,0.989c-0.316,0.299-0.694,0.537-1.134,0.712
			c-0.018,0.176-0.088,0.369-0.211,0.58h-0.554c-0.053,0.141-0.141,0.247-0.264,0.316l-0.369,0.211
			c-0.123,0.07-0.224,0.158-0.304,0.264c-0.078,0.105-0.118,0.255-0.118,0.448c-0.035-0.017-0.079-0.026-0.132-0.026
			c-0.176,0-0.383,0.088-0.619,0.264c-0.238,0.176-0.427,0.316-0.567,0.422c-0.299,0.211-0.603,0.405-0.909,0.58
			c-0.309,0.176-0.576,0.422-0.805,0.738c-0.703,0.299-1.371,0.646-2.004,1.041c-0.633,0.396-1.318,0.709-2.057,0.937
			c-0.281,0.3-0.611,0.532-0.988,0.698c-0.379,0.168-0.743,0.348-1.095,0.541v0.079c0,0.142,0.053,0.276,0.158,0.409
			c0.105,0.131,0.229,0.246,0.369,0.342c0.141,0.098,0.294,0.163,0.462,0.198c0.166,0.036,0.312,0.036,0.435,0
			c0.352,0.316,0.756,0.571,1.213,0.765c0.457,0.194,0.932,0.369,1.424,0.527s0.976,0.325,1.45,0.501s0.914,0.396,1.318,0.659h0.633
			c0.404,0.352,0.883,0.615,1.438,0.791c0.553,0.176,1.085,0.334,1.595,0.475c0.211,0.193,0.479,0.339,0.804,0.436
			s0.638,0.145,0.937,0.145h0.158c0.07,0,0.132-0.009,0.185-0.026v0.053c0,0.088,0.026,0.146,0.079,0.171
			c0.053,0.027,0.109,0.045,0.171,0.053c0.062,0.01,0.123,0.027,0.186,0.053c0.061,0.027,0.109,0.066,0.145,0.119h0.264
			c0.369,0,0.721,0.075,1.055,0.225s0.686,0.224,1.055,0.224c0.158,0,0.281-0.018,0.369-0.053c0.105,0.035,0.185,0.105,0.237,0.211
			s0.123,0.193,0.211,0.264c0.123-0.018,0.237-0.031,0.343-0.04s0.211-0.013,0.316-0.013c0.387,0,0.747,0.044,1.081,0.132
			s0.677,0.22,1.028,0.396c0.563-0.246,1.116-0.448,1.661-0.606s1.125-0.237,1.74-0.237v0.053c0,0.211,0.057,0.409,0.171,0.593
			C154.253,29.525,154.354,29.714,154.442,29.907z M144.344,8.866c0-0.211-0.039-0.378-0.119-0.501
			c-0.078-0.123-0.18-0.233-0.303-0.33c-0.123-0.096-0.25-0.188-0.383-0.277c-0.131-0.088-0.25-0.202-0.355-0.343
			c-0.457-0.141-0.905-0.299-1.345-0.475c-0.439-0.175-0.888-0.325-1.345-0.448c-0.229-0.053-0.457-0.101-0.686-0.145
			c-0.229-0.043-0.457-0.066-0.686-0.066h-0.58c-0.105-0.017-0.216-0.04-0.33-0.066s-0.224-0.048-0.329-0.066
			c-0.246-0.035-0.487-0.062-0.726-0.079c-0.236-0.017-0.479-0.026-0.725-0.026c-0.457,0-0.914,0.018-1.371,0.053l-1.371,0.105
			c-0.193,0.018-0.396,0.026-0.606,0.026s-0.404,0.018-0.58,0.053c-0.088,0.018-0.211,0.057-0.369,0.119
			c-0.158,0.062-0.325,0.123-0.501,0.185c-0.176,0.062-0.348,0.128-0.514,0.198c-0.168,0.07-0.313,0.123-0.436,0.158
			c0.018,0.123,0.026,0.247,0.026,0.369v0.343c0,0.264-0.009,0.527-0.026,0.791s-0.053,0.527-0.105,0.791
			c-0.018,0.105-0.044,0.211-0.079,0.316c-0.036,0.105-0.062,0.211-0.079,0.316c-0.035,0.158-0.053,0.334-0.053,0.527v0.501
			c-0.035,0.405-0.063,0.8-0.079,1.187c-0.018,0.387-0.044,0.782-0.079,1.187c-0.105,1.16-0.215,2.312-0.33,3.454
			c-0.114,1.143-0.188,2.294-0.224,3.454c0.58-0.123,1.134-0.307,1.661-0.554c0.527-0.246,1.046-0.515,1.556-0.804
			c0.51-0.29,1.02-0.576,1.529-0.857c0.51-0.281,1.046-0.518,1.608-0.712c0.141-0.193,0.312-0.352,0.514-0.475
			c0.202-0.123,0.374-0.281,0.515-0.475c0.176,0,0.308-0.04,0.396-0.119s0.202-0.136,0.343-0.171
			c0.844-0.738,1.705-1.433,2.584-2.083c0.879-0.65,1.723-1.345,2.531-2.083c0.07-0.246,0.188-0.488,0.356-0.725
			c0.166-0.237,0.329-0.479,0.487-0.725c0.158-0.246,0.299-0.492,0.422-0.738C144.282,9.411,144.344,9.147,144.344,8.866z"/>
		<path d="M162.854,12.057v0.105c-0.123,0.036-0.185,0.123-0.185,0.264c-0.193,0.088-0.396,0.154-0.606,0.198
			c-0.211,0.044-0.413,0.11-0.606,0.198c-0.193-0.017-0.392-0.03-0.593-0.04c-0.203-0.009-0.4-0.013-0.594-0.013
			c-0.527,0-1.055,0.018-1.582,0.053c-0.527,0.036-1.055,0.036-1.582,0c-0.246,0.141-0.514,0.25-0.805,0.33
			c-0.289,0.079-0.566,0.119-0.83,0.119c-0.211,0-0.396-0.026-0.554-0.079c-0.422,0.211-0.884,0.387-1.384,0.527
			c-0.502,0.141-1.007,0.277-1.517,0.409s-0.998,0.281-1.464,0.448c-0.466,0.167-0.874,0.4-1.226,0.699
			c-0.035,0.247-0.062,0.488-0.079,0.725s-0.026,0.471-0.026,0.699c0,0.247,0.013,0.475,0.04,0.686
			c0.025,0.211,0.083,0.422,0.171,0.633c0.088,0.036,0.188,0.062,0.304,0.079c0.113,0.018,0.215,0.026,0.303,0.026
			s0.176-0.013,0.264-0.04s0.149-0.083,0.185-0.171c0.264-0.035,0.527-0.048,0.791-0.04c0.264,0.009,0.527,0.013,0.791,0.013
			s0.522-0.009,0.778-0.026c0.254-0.017,0.505-0.062,0.751-0.132c0.281-0.07,0.558-0.114,0.831-0.132
			c0.271-0.017,0.54-0.035,0.804-0.053c0.264-0.017,0.536-0.048,0.817-0.092c0.281-0.043,0.571-0.136,0.87-0.277
			c0.229,0.088,0.462,0.132,0.698,0.132c0.238,0,0.471,0.018,0.699,0.053c0.123,0.088,0.225,0.185,0.303,0.29
			c0.08,0.105,0.119,0.229,0.119,0.369c0,0.247-0.088,0.492-0.264,0.738s-0.316,0.475-0.422,0.686h-0.29
			c-0.422,0-0.831,0.057-1.226,0.172c-0.396,0.114-0.791,0.246-1.188,0.395c-0.395,0.15-0.791,0.281-1.186,0.396
			c-0.396,0.114-0.805,0.171-1.227,0.171c-0.07,0-0.11,0.04-0.119,0.118c-0.009,0.08-0.03,0.137-0.065,0.172
			c-0.088-0.018-0.22-0.026-0.396-0.026c-0.404,0-0.791,0.044-1.16,0.132s-0.747,0.132-1.134,0.132
			c-0.105,0-0.211-0.004-0.316-0.013c-0.105-0.01-0.211-0.022-0.316-0.04c-0.088,0.142-0.202,0.233-0.343,0.276
			c-0.141,0.045-0.272,0.119-0.396,0.225c-0.053,0.158-0.084,0.352-0.093,0.58s-0.018,0.461-0.025,0.699
			c-0.01,0.236-0.031,0.461-0.066,0.672s-0.105,0.379-0.211,0.501c0.018,0.089,0.088,0.118,0.211,0.093
			c0.123-0.027,0.185,0.03,0.185,0.171c0,0.158-0.018,0.326-0.053,0.501c-0.035,0.176-0.053,0.352-0.053,0.527
			c0,0.334,0.04,0.699,0.118,1.094c0.08,0.396,0.202,0.761,0.369,1.095s0.392,0.611,0.673,0.831s0.633,0.329,1.055,0.329
			c0.281,0,0.545-0.053,0.791-0.158s0.448-0.281,0.606-0.527l0.132-0.026c0.07,0,0.136,0.009,0.198,0.026
			c0.061,0.018,0.127,0.026,0.197,0.026c0.105,0,0.241-0.066,0.408-0.197c0.167-0.133,0.352-0.286,0.555-0.462
			c0.201-0.176,0.408-0.347,0.619-0.515c0.211-0.166,0.413-0.285,0.606-0.355c0.123-0.246,0.241-0.492,0.356-0.738
			c0.113-0.246,0.285-0.439,0.514-0.58V24.37c0.176-0.193,0.364-0.369,0.566-0.527s0.356-0.36,0.462-0.606
			c0.088,0.035,0.171,0.063,0.251,0.079c0.078,0.018,0.162,0.026,0.25,0.026s0.18-0.009,0.277-0.026
			c0.096-0.017,0.188-0.044,0.276-0.079c0.141,0.193,0.251,0.408,0.329,0.646c0.08,0.236,0.181,0.461,0.304,0.672
			c-0.158,0.316-0.343,0.694-0.554,1.134s-0.439,0.879-0.686,1.318s-0.506,0.856-0.777,1.253c-0.273,0.395-0.541,0.698-0.805,0.909
			c-0.053,0.053-0.167,0.114-0.343,0.185c-0.193,0.141-0.369,0.277-0.527,0.408c-0.158,0.133-0.308,0.286-0.448,0.462
			c-0.51,0.158-0.998,0.369-1.463,0.633c-0.467,0.264-0.928,0.519-1.385,0.765c-0.211-0.053-0.439-0.079-0.686-0.079
			c-0.211,0-0.422,0.013-0.633,0.04c-0.211,0.025-0.439,0.039-0.686,0.039c-0.07-0.088-0.172-0.145-0.303-0.172
			c-0.133-0.025-0.181-0.118-0.146-0.276c-0.598-0.035-1.081-0.198-1.45-0.487c-0.369-0.291-0.682-0.646-0.936-1.068
			c-0.256-0.422-0.462-0.879-0.62-1.371s-0.325-0.967-0.501-1.424v-0.079c0-0.088,0.035-0.141,0.105-0.158s0.105-0.07,0.105-0.158
			c0-0.035-0.009-0.062-0.026-0.079c-0.053-0.193-0.097-0.36-0.132-0.501s-0.053-0.308-0.053-0.501c0-0.281,0.018-0.558,0.053-0.831
			c0.035-0.272,0.053-0.549,0.053-0.83c0-0.28-0.035-0.527-0.105-0.738c0.07-0.088,0.128-0.206,0.172-0.356
			c0.044-0.148,0.074-0.303,0.092-0.461s0.03-0.316,0.039-0.475s0.031-0.299,0.066-0.422c-0.07-0.193-0.132-0.365-0.185-0.514
			c-0.053-0.149-0.079-0.33-0.079-0.541v-0.185c0.176-0.299,0.325-0.606,0.448-0.923s0.255-0.642,0.396-0.976v-0.079
			c0-0.51-0.018-1.019-0.053-1.529c-0.035-0.51-0.053-1.019-0.053-1.529v-0.501c0-0.175,0.009-0.343,0.026-0.501
			c0.141-0.07,0.246-0.167,0.316-0.29c0.07-0.123,0.176-0.22,0.316-0.29h0.87l0.158-0.264c0.053-0.088,0.088-0.185,0.105-0.29
			c0.193-0.053,0.383-0.127,0.566-0.224c0.186-0.096,0.356-0.198,0.515-0.303c0.246-0.141,0.47-0.268,0.673-0.382
			c0.201-0.114,0.403-0.211,0.605-0.29s0.418-0.145,0.646-0.198s0.492-0.096,0.791-0.132c0.141,0,0.232-0.026,0.277-0.079
			c0.043-0.053,0.109-0.114,0.197-0.185c0.211,0.036,0.422,0.066,0.633,0.092s0.422,0.04,0.633,0.04
			c0.422,0,0.817-0.079,1.187-0.237c0.527,0,1.05-0.009,1.569-0.026c0.518-0.017,1.041-0.026,1.568-0.026
			c0.457,0,0.914,0.018,1.371,0.053c0.457,0.036,0.905,0.097,1.345,0.185c0.158-0.053,0.334-0.079,0.527-0.079
			c0.211,0,0.426,0.022,0.646,0.066c0.22,0.044,0.436,0.049,0.646,0.013c0.018,0.194,0.066,0.356,0.145,0.488
			C162.814,11.727,162.854,11.881,162.854,12.057z"/>
		<path d="M175.536,25.504c0,0.299-0.075,0.559-0.225,0.777c-0.149,0.221-0.206,0.488-0.171,0.805
			c-0.246,0.141-0.448,0.325-0.606,0.554s-0.308,0.466-0.448,0.712c-1.16,0.756-2.404,1.366-3.731,1.832s-2.693,0.699-4.1,0.699
			c-0.088,0-0.167-0.039-0.237-0.119c-0.07-0.078-0.141-0.162-0.211-0.25s-0.146-0.172-0.224-0.25
			c-0.08-0.08-0.172-0.119-0.277-0.119c-0.123,0-0.22,0.026-0.29,0.079c0-0.035,0.004-0.065,0.013-0.093
			c0.009-0.025,0.014-0.057,0.014-0.092c0-0.211-0.026-0.427-0.079-0.646s-0.079-0.435-0.079-0.646c0-0.246,0.044-0.448,0.132-0.606
			h0.316c0.176,0,0.347-0.014,0.515-0.039c0.166-0.027,0.347-0.04,0.54-0.04s0.369,0.053,0.527,0.158
			c0.967-0.035,1.886-0.215,2.755-0.54c0.871-0.325,1.754-0.646,2.65-0.963c0.141-0.193,0.225-0.408,0.25-0.646
			c0.027-0.236,0.093-0.461,0.198-0.672c-0.457-0.387-0.919-0.689-1.384-0.909c-0.467-0.22-1.007-0.294-1.622-0.225
			c-0.369-0.228-0.761-0.36-1.173-0.396c-0.414-0.035-0.831-0.088-1.253-0.158c-0.105-0.018-0.216-0.039-0.329-0.066
			c-0.115-0.025-0.233-0.039-0.356-0.039c-0.088,0-0.171,0.022-0.251,0.066c-0.078,0.043-0.101,0.109-0.065,0.197
			c-0.088-0.141-0.207-0.225-0.356-0.25c-0.149-0.027-0.276-0.093-0.382-0.198c-0.563-0.035-1.055-0.136-1.477-0.304
			c-0.422-0.166-0.888-0.355-1.397-0.566c-0.141-0.053-0.277-0.092-0.408-0.119c-0.133-0.025-0.26-0.074-0.383-0.145
			c-0.316-0.158-0.571-0.369-0.765-0.633s-0.347-0.558-0.462-0.883c-0.113-0.326-0.197-0.664-0.25-1.016s-0.105-0.676-0.158-0.976
			c0.158-0.281,0.303-0.571,0.436-0.87c0.131-0.299,0.241-0.615,0.329-0.949c0.105-0.053,0.211-0.096,0.316-0.132
			c0.105-0.035,0.22-0.079,0.343-0.132c-0.018-0.035-0.026-0.079-0.026-0.132c0-0.088,0.03-0.175,0.093-0.264
			c0.061-0.088,0.074-0.175,0.039-0.264c0.387-0.352,0.76-0.716,1.121-1.094c0.359-0.378,0.672-0.795,0.936-1.252
			c0.264-0.088,0.475-0.22,0.633-0.396c0.158-0.175,0.316-0.356,0.475-0.541s0.334-0.352,0.527-0.501
			c0.193-0.149,0.439-0.241,0.738-0.277c0.07-0.123,0.167-0.224,0.29-0.303s0.246-0.154,0.369-0.224
			c0.123-0.07,0.237-0.149,0.343-0.237c0.105-0.088,0.185-0.211,0.237-0.369c0.281,0,0.54-0.053,0.778-0.158
			c0.236-0.105,0.47-0.22,0.698-0.343c0.229-0.123,0.462-0.237,0.698-0.343c0.238-0.105,0.497-0.158,0.778-0.158
			c0.07,0,0.141,0.004,0.211,0.013c0.07,0.009,0.149,0.022,0.237,0.04c0.123,0.123,0.206,0.268,0.25,0.435
			c0.044,0.167,0.075,0.347,0.093,0.541c0.018,0.194,0.03,0.387,0.04,0.58c0.008,0.194,0.039,0.369,0.092,0.527
			c-0.158,0.299-0.33,0.598-0.514,0.896c-0.186,0.299-0.427,0.527-0.726,0.686h-0.053c-0.123,0.018-0.237-0.009-0.343-0.079
			c-0.105-0.07-0.229-0.105-0.369-0.105c-0.088,0-0.158,0.026-0.211,0.079l-0.132,0.132c-0.035,0.036-0.084,0.07-0.146,0.105
			c-0.062,0.036-0.145,0.036-0.25,0c-0.246,0.088-0.343,0.237-0.29,0.448c-0.334,0.036-0.615,0.136-0.844,0.303
			c-0.229,0.167-0.439,0.352-0.633,0.554c-0.193,0.202-0.387,0.387-0.58,0.554c-0.193,0.167-0.422,0.26-0.686,0.277
			c-0.299,0.527-0.664,0.993-1.095,1.397c-0.431,0.405-0.786,0.861-1.067,1.371c0.053,0.141,0.088,0.29,0.105,0.448
			s0.044,0.325,0.079,0.501c0.158,0.211,0.347,0.396,0.566,0.554s0.436,0.316,0.646,0.475h0.079c0.352,0,0.677,0.065,0.976,0.198
			c0.299,0.131,0.615,0.197,0.949,0.197c0.176,0,0.325-0.035,0.448-0.105c0.457,0.105,0.909,0.193,1.358,0.264
			c0.447,0.07,0.9,0.123,1.357,0.158c0.229,0.035,0.461,0.053,0.699,0.053c0.236,0,0.461,0.026,0.672,0.079
			c0.193,0.053,0.387,0.118,0.58,0.198c0.193,0.078,0.387,0.162,0.58,0.25c0.404,0.176,0.786,0.369,1.146,0.58
			s0.682,0.461,0.963,0.752c0.281,0.289,0.501,0.623,0.659,1.002C175.457,24.577,175.536,25.012,175.536,25.504z"/>
		<path d="M193.782,13.56c-0.105,0.158-0.167,0.334-0.185,0.527c-0.018,0.194-0.026,0.369-0.026,0.527
			c0,0.211,0.004,0.418,0.014,0.62c0.008,0.202,0.013,0.4,0.013,0.593v0.396c-0.035,0.123-0.088,0.247-0.158,0.369
			c-0.07,0.123-0.123,0.247-0.158,0.369c-0.246,0.65-0.369,1.301-0.369,1.951v0.053c-0.088,0.211-0.171,0.404-0.251,0.58
			c-0.078,0.176-0.153,0.348-0.224,0.514c-0.07,0.168-0.123,0.344-0.158,0.527c-0.035,0.186-0.044,0.4-0.026,0.646
			c-0.246,0.615-0.571,1.174-0.976,1.674c-0.404,0.502-0.8,1.016-1.187,1.543c-0.369,0.142-0.708,0.325-1.016,0.554
			s-0.602,0.483-0.883,0.765c-0.545,0.176-1.081,0.378-1.608,0.606s-1.002,0.536-1.424,0.923c-0.334,0.035-0.668,0.088-1.002,0.158
			s-0.659,0.176-0.976,0.316h-0.316c-0.158,0-0.272-0.035-0.343-0.105c-0.229,0.123-0.466,0.207-0.712,0.25
			c-0.246,0.045-0.492,0.066-0.738,0.066c-0.316,0-0.629-0.021-0.936-0.066c-0.309-0.043-0.62-0.092-0.937-0.145
			c-0.176-0.246-0.422-0.436-0.738-0.566c-0.316-0.133-0.598-0.26-0.844-0.383c-0.51-0.703-0.879-1.385-1.107-2.044
			s-0.466-1.401-0.712-2.228c0.035-0.246,0.097-0.488,0.185-0.725c0.088-0.238,0.123-0.497,0.105-0.778
			c0.316-0.913,0.733-1.744,1.253-2.492c0.518-0.747,1.111-1.463,1.779-2.149c0-0.105,0.021-0.193,0.066-0.264
			c0.043-0.07,0.048-0.175,0.013-0.316c0.018,0.018,0.053,0.026,0.105,0.026c0.141,0,0.229-0.04,0.264-0.119
			s0.044-0.171,0.026-0.277c0.633-0.404,1.208-0.87,1.727-1.397s1.112-0.966,1.78-1.318c0.053-0.158,0.141-0.29,0.264-0.396
			s0.22-0.228,0.29-0.369c0.563-0.158,1.072-0.396,1.529-0.712s0.94-0.597,1.45-0.844c0.281-0.158,0.549-0.268,0.804-0.33
			c0.255-0.062,0.532-0.127,0.831-0.198c0.105-0.035,0.202-0.062,0.29-0.079c0.088-0.017,0.185-0.026,0.29-0.026
			c0.316,0,0.624,0.057,0.923,0.171c0.299,0.115,0.606,0.171,0.923,0.171c0.088,0,0.162-0.004,0.224-0.013
			c0.062-0.009,0.128-0.022,0.198-0.04c0.299,0.369,0.677,0.65,1.134,0.844c0.105,0.264,0.232,0.492,0.383,0.686
			c0.148,0.194,0.303,0.382,0.461,0.567s0.303,0.387,0.436,0.606C193.663,13.002,193.747,13.261,193.782,13.56z M191.146,14.931
			c0-0.088-0.009-0.167-0.026-0.237c-0.176-0.053-0.343-0.123-0.501-0.211c-0.158-0.088-0.334-0.132-0.527-0.132
			c-0.123,0-0.246,0.026-0.369,0.079c-0.018-0.123-0.066-0.211-0.145-0.264c-0.08-0.053-0.168-0.101-0.264-0.145
			c-0.098-0.043-0.194-0.079-0.291-0.105s-0.18-0.075-0.25-0.145c-0.053-0.141-0.11-0.286-0.172-0.435
			c-0.062-0.149-0.171-0.259-0.329-0.33c-0.158,0.158-0.343,0.286-0.554,0.382c-0.211,0.097-0.427,0.189-0.646,0.277
			c-0.22,0.088-0.431,0.194-0.633,0.316c-0.202,0.123-0.373,0.273-0.514,0.448h-0.475c-0.105,0.194-0.255,0.339-0.448,0.435
			c-0.193,0.097-0.36,0.233-0.501,0.409c-0.281,0.141-0.541,0.313-0.777,0.514c-0.238,0.202-0.471,0.413-0.699,0.633
			c-0.229,0.22-0.453,0.444-0.672,0.672c-0.221,0.229-0.453,0.439-0.699,0.633c-0.229,0.492-0.479,0.919-0.752,1.278
			c-0.272,0.361-0.527,0.726-0.764,1.095c-0.238,0.369-0.44,0.769-0.607,1.2c-0.167,0.431-0.25,0.962-0.25,1.595v0.264
			c0,0.089,0.009,0.176,0.026,0.264c0.229,0.247,0.417,0.511,0.567,0.791c0.148,0.281,0.399,0.484,0.751,0.606
			c0.352,0.141,0.726,0.202,1.12,0.185c0.396-0.018,0.778,0.026,1.147,0.132c0.844-0.158,1.656-0.417,2.438-0.778
			c0.782-0.359,1.525-0.794,2.229-1.305c0.105-0.088,0.229-0.181,0.369-0.276c0.141-0.097,0.255-0.198,0.343-0.304
			c0.088-0.088,0.162-0.185,0.224-0.29s0.128-0.201,0.198-0.29c0.141-0.228,0.299-0.457,0.475-0.686
			c0.176-0.228,0.36-0.438,0.554-0.633c0.088-0.386,0.202-0.761,0.343-1.12c0.141-0.36,0.281-0.716,0.422-1.068
			c0.141-0.352,0.259-0.712,0.356-1.081c0.096-0.369,0.145-0.755,0.145-1.16c0-0.088-0.005-0.185-0.014-0.29
			s-0.021-0.202-0.039-0.29C191.075,15.37,191.146,15.159,191.146,14.931z"/>
		<path d="M229.325,24.238c-0.035,0.264-0.128,0.466-0.277,0.606s-0.32,0.272-0.514,0.396c-0.088-0.018-0.172-0.03-0.25-0.039
			c-0.08-0.009-0.163-0.014-0.251-0.014c-0.545-0.018-1.06,0.053-1.542,0.211c-0.484,0.158-0.98,0.272-1.49,0.343
			c-0.176,0.035-0.339,0.049-0.488,0.04s-0.303,0.004-0.461,0.039c-0.563,0.088-1.16,0.158-1.793,0.211s-1.266,0.119-1.898,0.197
			c-0.633,0.08-1.252,0.177-1.859,0.291c-0.605,0.114-1.173,0.276-1.7,0.487c-0.053-0.035-0.105-0.074-0.158-0.118
			s-0.114-0.066-0.185-0.066c-0.176,0-0.343,0.026-0.501,0.079s-0.316,0.07-0.475,0.053c-0.176,0.105-0.365,0.181-0.567,0.224
			c-0.202,0.045-0.404,0.08-0.605,0.105c-0.203,0.027-0.4,0.066-0.594,0.119s-0.378,0.149-0.554,0.29
			c-0.141-0.07-0.313-0.109-0.515-0.118s-0.338-0.075-0.408-0.198c-0.404,0.193-0.83,0.316-1.279,0.369
			c-0.447,0.053-0.9,0.07-1.357,0.053c-0.299-0.018-0.642-0.062-1.028-0.132s-0.773-0.172-1.16-0.303
			c-0.387-0.133-0.747-0.291-1.081-0.475c-0.334-0.186-0.589-0.409-0.765-0.673c-0.123-0.176-0.211-0.369-0.264-0.58
			s-0.176-0.369-0.369-0.475c0.053-0.404,0.114-0.8,0.185-1.187s0.141-0.781,0.211-1.187c0.352-0.299,0.686-0.615,1.002-0.949
			c0.316-0.333,0.615-0.686,0.896-1.055c0.334-0.158,0.646-0.352,0.936-0.58c0.291-0.228,0.58-0.462,0.871-0.698
			c0.289-0.238,0.58-0.471,0.869-0.699c0.291-0.228,0.603-0.431,0.937-0.606c0.053-0.123,0.127-0.224,0.224-0.303
			s0.198-0.158,0.304-0.237s0.202-0.167,0.29-0.264c0.088-0.096,0.149-0.215,0.185-0.356c0.615-0.369,1.151-0.834,1.608-1.397
			c0.457-0.563,0.756-1.195,0.896-1.898c-0.299-0.246-0.638-0.409-1.016-0.488s-0.769-0.136-1.173-0.171
			c-0.352-0.017-0.717-0.017-1.095,0c-0.378,0.018-0.76,0.009-1.146-0.026c-0.387,0.123-0.787,0.202-1.199,0.237
			c-0.414,0.036-0.822,0.066-1.227,0.092s-0.805,0.079-1.199,0.158c-0.396,0.079-0.778,0.224-1.147,0.435
			c-0.07,0-0.137-0.009-0.198-0.026c-0.062-0.017-0.127-0.026-0.197-0.026c-0.563-0.017-1.09,0.092-1.582,0.33
			s-0.976,0.471-1.45,0.699c-0.035,0.07-0.053,0.123-0.053,0.158c0,0.105,0.021,0.207,0.065,0.303
			c0.044,0.097,0.066,0.198,0.066,0.303c-0.018,0.018-0.026,0.036-0.026,0.053c0,0.018-0.009,0.036-0.026,0.053
			c-0.018,0.088-0.039,0.167-0.066,0.237c-0.025,0.07-0.057,0.149-0.092,0.237c-0.193,0.563-0.299,1.117-0.316,1.661
			c-0.018,0.458-0.018,0.906,0,1.345c0.018,0.439,0.018,0.888,0,1.345c-0.035,0.563-0.123,1.09-0.264,1.582
			c0.088,0.422,0.167,0.866,0.237,1.332c0.07,0.465,0.158,0.927,0.264,1.384s0.232,0.901,0.382,1.331
			c0.149,0.432,0.348,0.84,0.594,1.227c-0.018,0.035-0.009,0.062,0.026,0.079s0.07,0.026,0.105,0.026h0.211
			c0.088,0,0.123,0.035,0.105,0.105c0.035,0.053,0.062,0.102,0.079,0.145c0.018,0.045,0.053,0.084,0.105,0.119
			c0.035,0.053,0.035,0.123,0,0.211c-0.018,0.352-0.105,0.677-0.264,0.976s-0.255,0.624-0.29,0.976
			c-0.211,0.053-0.404,0.079-0.58,0.079c-0.299-0.018-0.563-0.102-0.791-0.251s-0.439-0.329-0.633-0.54s-0.378-0.427-0.554-0.646
			c-0.176-0.22-0.369-0.409-0.58-0.567c-0.123-0.492-0.242-1.037-0.355-1.635c-0.115-0.598-0.304-1.107-0.567-1.529
			c0.07-0.158,0.105-0.352,0.105-0.58c0.018-0.352-0.013-0.698-0.093-1.042c-0.078-0.342-0.101-0.689-0.065-1.041
			c0-0.193,0.021-0.387,0.065-0.58s0.075-0.387,0.093-0.58c0.018-0.299-0.013-0.589-0.093-0.87c-0.078-0.28-0.109-0.571-0.092-0.87
			c0.018-0.141,0.048-0.277,0.092-0.408c0.044-0.132,0.11-0.251,0.198-0.356c-0.088-0.211-0.114-0.413-0.079-0.606
			c0.018-0.299,0.053-0.58,0.105-0.844s0.088-0.527,0.105-0.791c0-0.141-0.009-0.277-0.026-0.409s-0.044-0.259-0.079-0.382
			l-0.237-0.079c-0.105,0-0.207,0.026-0.304,0.079s-0.18,0.115-0.25,0.185c-0.07,0.07-0.132,0.128-0.185,0.171
			c-0.053,0.044-0.105,0.066-0.158,0.066c-0.035,0-0.075-0.004-0.118-0.013c-0.045-0.009-0.084-0.013-0.119-0.013
			s-0.102,0.036-0.197,0.105c-0.098,0.07-0.211,0.145-0.344,0.224c-0.131,0.079-0.259,0.158-0.382,0.237s-0.22,0.128-0.29,0.145
			c-0.193-0.035-0.348-0.101-0.461-0.198c-0.115-0.096-0.221-0.193-0.316-0.29c-0.098-0.096-0.198-0.185-0.304-0.264
			s-0.237-0.109-0.396-0.092c-0.053-0.105-0.083-0.22-0.092-0.343c-0.009-0.123-0.005-0.246,0.013-0.369v-0.422
			c0.123-0.228,0.286-0.417,0.487-0.567c0.202-0.149,0.418-0.277,0.646-0.382l0.686-0.316c0.229-0.105,0.439-0.237,0.633-0.396
			h0.237c0.316,0.018,0.593-0.043,0.831-0.185c0.236-0.141,0.461-0.303,0.672-0.488s0.426-0.373,0.646-0.567
			c0.219-0.193,0.461-0.343,0.725-0.448c0.193,0.088,0.396,0.163,0.606,0.224c0.211,0.062,0.431,0.102,0.659,0.119
			c0.229,0,0.466-0.035,0.712-0.105c0.246-0.07,0.439-0.202,0.58-0.396c0.088,0.036,0.162,0.057,0.224,0.066
			c0.062,0.009,0.137,0.013,0.225,0.013c0.264,0.018,0.527-0.022,0.791-0.119c0.264-0.096,0.519-0.215,0.765-0.356
			c0.352,0.018,0.698-0.004,1.042-0.066c0.342-0.062,0.686-0.127,1.027-0.198c0.344-0.07,0.686-0.136,1.029-0.198
			c0.342-0.062,0.689-0.083,1.041-0.066c0.58,0.018,1.151-0.035,1.714-0.158c0.563-0.123,1.134-0.167,1.714-0.132
			c0.404,0.018,0.805,0.049,1.199,0.092c0.396,0.044,0.796,0.057,1.2,0.04c0.229,0.105,0.435,0.198,0.62,0.277
			c0.184,0.079,0.417,0.102,0.698,0.066c0.563,0.475,1.072,1.028,1.529,1.661v0.448c-0.018,0.405-0.088,0.8-0.211,1.187
			c-0.123,0.387-0.269,0.769-0.435,1.147c-0.168,0.378-0.348,0.748-0.541,1.107c-0.193,0.36-0.378,0.716-0.554,1.068
			c-1.143,1.038-2.285,2.065-3.428,3.085s-2.32,2.004-3.533,2.953c-0.035,0.176-0.084,0.334-0.146,0.475s-0.101,0.29-0.118,0.448
			c0,0.089,0.009,0.158,0.026,0.211c0.123,0.035,0.232,0.102,0.33,0.197c0.096,0.098,0.127,0.225,0.092,0.383h0.237
			c0.088,0,0.132,0.035,0.132,0.105l0.422,0.026c0.668,0.035,1.336,0.018,2.004-0.053s1.34-0.149,2.018-0.237
			c0.676-0.088,1.349-0.172,2.017-0.25c0.668-0.08,1.336-0.128,2.004-0.146c0.158-0.053,0.325-0.096,0.501-0.132
			c0.176-0.035,0.334-0.105,0.475-0.211h0.079c0.123,0,0.215,0.036,0.276,0.105c0.062,0.07,0.154,0.114,0.277,0.132
			c0.088,0,0.18-0.018,0.277-0.053c0.096-0.035,0.197-0.062,0.303-0.079c0.246-0.069,0.505-0.114,0.777-0.132
			s0.541-0.043,0.805-0.079c1.02-0.088,2.03-0.146,3.032-0.171c1.002-0.027,2.004-0.154,3.006-0.383
			c0.088,0.123,0.211,0.207,0.369,0.25c0.158,0.045,0.325,0.089,0.501,0.133c0.176,0.043,0.338,0.092,0.488,0.145
			C229.171,23.975,229.272,24.08,229.325,24.238z"/>
		<path d="M244.012,11.872c-0.07,0.229-0.185,0.439-0.343,0.633l-0.448,0.554c-0.141,0.176-0.26,0.365-0.355,0.567
			c-0.098,0.202-0.128,0.435-0.093,0.699c-0.035,0-0.079-0.004-0.132-0.013c-0.053-0.009-0.097-0.013-0.132-0.013
			c-0.281,0-0.497,0.066-0.646,0.198c-0.15,0.132-0.348,0.242-0.594,0.33c-0.035-0.105-0.079-0.207-0.132-0.303
			c-0.053-0.096-0.132-0.162-0.237-0.198c-0.422,0.088-0.844,0.154-1.266,0.198c-0.422,0.044-0.844,0.102-1.266,0.171
			c-0.193,0.036-0.387,0.083-0.58,0.145c-0.193,0.062-0.396,0.119-0.606,0.171c-0.105,0.036-0.22,0.049-0.343,0.04
			c-0.123-0.009-0.246-0.004-0.369,0.013c-0.422,0.018-0.879,0.049-1.371,0.092c-0.492,0.044-0.932,0.181-1.318,0.409
			c-0.176-0.035-0.36-0.062-0.554-0.079c-0.193-0.017-0.387-0.026-0.58-0.026c-0.422,0-0.884,0.04-1.384,0.119
			c-0.502,0.079-0.945,0.233-1.332,0.461c-0.088-0.035-0.181-0.062-0.277-0.079c-0.097-0.017-0.206-0.026-0.329-0.026
			c-0.035,0-0.062,0.004-0.079,0.013c-0.018,0.009-0.044,0.013-0.079,0.013c-0.018,0.158,0.004,0.313,0.065,0.461
			c0.062,0.149,0.172,0.268,0.33,0.356c-0.07,0.194-0.105,0.405-0.105,0.633c0,0.299,0.021,0.598,0.066,0.896
			c0.043,0.299,0.065,0.598,0.065,0.896c0,0.334-0.044,0.598-0.132,0.791c0.176,0.527,0.264,1.091,0.264,1.688
			c0,0.211-0.014,0.418-0.039,0.62c-0.027,0.201-0.04,0.418-0.04,0.646c0,0.194,0.07,0.347,0.211,0.462
			c0.141,0.114,0.211,0.268,0.211,0.461c0,0.07-0.018,0.141-0.053,0.211c0.246-0.053,0.483-0.127,0.712-0.225
			c0.229-0.096,0.466-0.145,0.712-0.145c0.141,0,0.276,0.026,0.409,0.079c0.131,0.053,0.25,0.123,0.355,0.211
			c-0.018,0.089-0.031,0.185-0.039,0.29c-0.01,0.105-0.014,0.211-0.014,0.316c0,0.194,0.004,0.374,0.014,0.541
			c0.008,0.167,0.021,0.347,0.039,0.54c-0.141,0.246-0.303,0.466-0.488,0.659c-0.184,0.193-0.312,0.439-0.382,0.738
			c-0.264,0-0.497,0.058-0.698,0.172c-0.203,0.114-0.392,0.236-0.567,0.369c-0.176,0.131-0.352,0.255-0.527,0.369
			s-0.369,0.171-0.58,0.171c-0.264,0-0.448-0.04-0.554-0.118c-0.105-0.08-0.185-0.163-0.237-0.251s-0.102-0.167-0.146-0.237
			s-0.136-0.097-0.276-0.079c-0.035-0.229-0.105-0.443-0.211-0.646s-0.216-0.4-0.329-0.594c-0.115-0.193-0.229-0.391-0.344-0.594
			c-0.114-0.201-0.197-0.408-0.25-0.619c-0.105-0.457-0.149-0.932-0.132-1.424s-0.062-0.967-0.237-1.424
			c0.035-0.246,0.062-0.496,0.079-0.752c0.018-0.254,0.026-0.504,0.026-0.751c0-0.491-0.014-0.979-0.039-1.464
			c-0.027-0.483-0.049-0.979-0.066-1.489c-0.123-0.158-0.197-0.338-0.225-0.541c-0.025-0.202-0.048-0.399-0.065-0.593
			c-0.053-0.053-0.11-0.105-0.171-0.158c-0.063-0.053-0.102-0.123-0.119-0.211c-0.141-0.035-0.246-0.053-0.316-0.053
			c-0.246,0-0.453,0.057-0.619,0.171c-0.168,0.115-0.321,0.171-0.462,0.171s-0.272-0.017-0.396-0.053
			c-0.123-0.035-0.246-0.053-0.369-0.053c-0.105,0-0.163,0.022-0.172,0.066c-0.009,0.044-0.048,0.083-0.118,0.119
			c-0.053,0.036-0.176,0.07-0.369,0.105c-0.193,0.036-0.409,0.066-0.646,0.092c-0.238,0.026-0.467,0.049-0.686,0.066
			c-0.221,0.018-0.365,0.026-0.436,0.026c-0.281,0-0.496-0.057-0.646-0.171c-0.148-0.114-0.329-0.241-0.54-0.382
			c0.035-0.105,0.053-0.175,0.053-0.211c0-0.175-0.053-0.32-0.158-0.435c-0.105-0.114-0.158-0.215-0.158-0.303
			c0-0.193,0.075-0.343,0.224-0.448c0.15-0.105,0.233-0.272,0.251-0.501c0.404-0.175,0.817-0.307,1.239-0.396
			c0.422-0.088,0.853-0.158,1.292-0.211s0.874-0.114,1.306-0.185c0.43-0.07,0.856-0.185,1.278-0.343
			c0.123,0.018,0.241,0.031,0.356,0.04c0.113,0.009,0.232,0.013,0.355,0.013c0.527,0,1.05-0.057,1.568-0.171
			c0.519-0.114,1.051-0.171,1.596-0.171c0.141,0,0.281,0.009,0.422,0.026c0.141,0.018,0.281,0.044,0.422,0.079
			c0.703-0.105,1.401-0.22,2.096-0.343c0.694-0.123,1.411-0.228,2.149-0.316c0.352-0.035,0.698-0.066,1.042-0.092
			c0.342-0.026,0.689-0.066,1.041-0.119c0.123-0.017,0.215-0.048,0.277-0.092c0.061-0.043,0.092-0.136,0.092-0.277
			c0.158,0.07,0.334,0.105,0.527,0.105c0.299,0,0.589-0.053,0.87-0.158s0.571-0.158,0.87-0.158c0.07,0,0.132,0.004,0.185,0.013
			c0.053,0.009,0.105,0.013,0.158,0.013c0.123,0,0.188-0.057,0.198-0.171c0.008-0.114,0.092-0.188,0.25-0.224
			c0.123-0.035,0.299-0.062,0.527-0.079c0.229-0.017,0.47-0.04,0.725-0.066s0.492-0.062,0.713-0.105
			c0.219-0.043,0.382-0.109,0.487-0.198l0.185-0.29c0.316,0.018,0.549,0.154,0.699,0.409c0.148,0.255,0.232,0.532,0.25,0.831
			c0.07,0.07,0.172,0.102,0.303,0.092c0.133-0.009,0.251-0.013,0.356-0.013H244.012z"/>
	</g>
</g>
</svg>
